<?xml version="1.0" encoding="utf-8"?>
<!-- Generator: Adobe Illustrator 24.2.1, SVG Export Plug-In . SVG Version: 6.00 Build 0)  -->
<svg version="1.1" id="Layer_1" xmlns="http://www.w3.org/2000/svg" xmlns:xlink="http://www.w3.org/1999/xlink" x="0px" y="0px"
	 width="360px" height="144px" viewBox="0 0 360 144" style="enable-background:new 0 0 360 144;" xml:space="preserve">
<style type="text/css">
	.st0{display:none;}
</style>
<g>
	<path d="M27.72,58.12h-10.1V55.6h23.59v2.52H31.1v23.12h-3.38V58.12z"/>
	<path d="M62.48,69.86v11.38h-3.3V70c0-1.68-0.38-2.91-1.14-3.69c-0.76-0.78-1.96-1.17-3.59-1.17c-1.9,0-3.42,0.52-4.56,1.55
		c-1.14,1.03-1.71,2.43-1.71,4.18v10.37h-3.3v-26.5h3.3v11.34c0.65-1.1,1.58-1.95,2.79-2.52c1.21-0.58,2.59-0.86,4.14-0.86
		C60.02,62.69,62.48,65.08,62.48,69.86z"/>
	<path d="M85.86,72.09H70.83c0.03,2.3,0.63,4.05,1.81,5.22c1.18,1.18,2.9,1.76,5.15,1.76c2.39,0,4.59-0.71,6.6-2.13l1.1,2.13
		c-0.9,0.74-2.04,1.33-3.44,1.76c-1.4,0.43-2.83,0.65-4.3,0.65c-3.21,0-5.72-0.83-7.54-2.5c-1.82-1.67-2.73-3.95-2.73-6.86
		c0-1.85,0.41-3.49,1.22-4.92c0.81-1.43,1.96-2.54,3.42-3.33c1.47-0.79,3.14-1.19,5.01-1.19c2.72,0,4.85,0.79,6.4,2.36
		c1.55,1.57,2.32,3.74,2.32,6.5V72.09z M73.01,66.33c-1.07,0.91-1.76,2.2-2.06,3.85h11.94c-0.16-1.7-0.73-3-1.69-3.89
		c-0.96-0.89-2.3-1.33-4.01-1.33S74.08,65.42,73.01,66.33z"/>
	<path d="M120.9,74.65h-15.16l-3.22,6.59h-3.46l12.75-25.64h2.93l12.75,25.64h-3.42L120.9,74.65z M119.72,72.2l-6.4-13.18
		l-6.4,13.18H119.72z"/>
	<path d="M149.67,63.12v17.97c0,2.69-0.78,4.72-2.34,6.1c-1.56,1.38-3.86,2.07-6.91,2.07c-3.12,0-5.81-0.62-8.07-1.87l0.57-2.38
		c1.3,0.65,2.53,1.12,3.69,1.4c1.15,0.29,2.42,0.43,3.81,0.43c1.98,0,3.48-0.46,4.48-1.39c1-0.92,1.51-2.3,1.51-4.12v-4.29
		c-0.63,1.15-1.54,2.05-2.75,2.68c-1.21,0.64-2.64,0.96-4.3,0.96c-1.79,0-3.39-0.37-4.79-1.12c-1.4-0.74-2.48-1.8-3.24-3.17
		c-0.76-1.37-1.14-2.94-1.14-4.72s0.38-3.35,1.14-4.72c0.76-1.37,1.84-2.42,3.24-3.17c1.4-0.74,2.99-1.12,4.79-1.12
		c1.63,0,3.05,0.31,4.26,0.94c1.21,0.62,2.13,1.5,2.75,2.63v-3.13H149.67z M144.68,76.5c1.13-1.16,1.69-2.77,1.69-4.81
		s-0.56-3.64-1.69-4.81c-1.13-1.16-2.68-1.75-4.67-1.75c-2.01,0-3.59,0.58-4.75,1.75c-1.16,1.17-1.73,2.77-1.73,4.81
		s0.58,3.64,1.73,4.81c1.15,1.16,2.74,1.75,4.75,1.75C141.99,78.25,143.55,77.67,144.68,76.5z"/>
	<path d="M173.18,72.09h-15.04c0.03,2.3,0.63,4.05,1.81,5.22c1.18,1.18,2.9,1.76,5.15,1.76c2.39,0,4.59-0.71,6.6-2.13l1.1,2.13
		c-0.9,0.74-2.04,1.33-3.44,1.76c-1.4,0.43-2.83,0.65-4.3,0.65c-3.21,0-5.72-0.83-7.54-2.5c-1.82-1.67-2.73-3.95-2.73-6.86
		c0-1.85,0.41-3.49,1.22-4.92c0.81-1.43,1.96-2.54,3.42-3.33c1.47-0.79,3.14-1.19,5.01-1.19c2.72,0,4.85,0.79,6.4,2.36
		c1.55,1.57,2.32,3.74,2.32,6.5V72.09z M160.32,66.33c-1.07,0.91-1.76,2.2-2.06,3.85h11.94c-0.16-1.7-0.73-3-1.69-3.89
		c-0.96-0.89-2.3-1.33-4.01-1.33C162.79,64.96,161.39,65.42,160.32,66.33z"/>
	<path d="M195.79,69.86v11.38h-3.3V70c0-1.68-0.38-2.91-1.14-3.69c-0.76-0.78-1.96-1.17-3.59-1.17c-1.9,0-3.42,0.52-4.56,1.55
		c-1.14,1.03-1.71,2.43-1.71,4.18v10.37h-3.3V68.2c0-1.87-0.11-3.56-0.33-5.08H181l0.33,3.24c0.62-1.18,1.56-2.08,2.81-2.72
		c1.25-0.64,2.68-0.95,4.28-0.95C193.33,62.69,195.79,65.08,195.79,69.86z"/>
	<path d="M205.42,80.34c-1.48-0.77-2.62-1.86-3.42-3.26c-0.8-1.4-1.2-3.04-1.2-4.92c0-1.87,0.41-3.52,1.22-4.95
		c0.81-1.43,1.98-2.54,3.48-3.33c1.51-0.79,3.27-1.19,5.28-1.19c1.38,0,2.72,0.21,4.01,0.63c1.29,0.42,2.36,1,3.2,1.75l-1.1,2.16
		c-1.03-0.72-2.03-1.25-2.99-1.59c-0.96-0.34-1.95-0.5-2.95-0.5c-2.09,0-3.74,0.62-4.93,1.85c-1.2,1.24-1.79,2.96-1.79,5.17
		c0,2.18,0.59,3.88,1.77,5.1c1.18,1.21,2.83,1.82,4.95,1.82c1,0,1.99-0.17,2.95-0.5c0.96-0.34,1.96-0.86,2.99-1.58l1.1,2.16
		c-0.87,0.72-1.96,1.29-3.28,1.71c-1.32,0.42-2.68,0.63-4.09,0.63C208.64,81.49,206.9,81.11,205.42,80.34z"/>
	<path d="M240.2,63.12l-9.57,19.77c-0.46,0.96-0.93,1.74-1.29,2.31c-0.74,1.15-1.13,1.75-1.88,2.35c-0.9,0.72-1.78,1.01-2.22,1.15
		c-0.57,0.18-1.78,0.56-3.29,0.3c-1.91-0.33-3.12-1.44-3.55-1.88c0.66-0.6,1.31-1.2,1.97-1.8c0.28,0.29,1.03,1.02,2.18,1.15
		c1.43,0.17,2.5-0.69,3.08-1.15c0.97-0.78,1.47-1.72,1.71-2.31c0.29-0.65,0.57-1.31,0.86-1.96l-8.68-17.93h3.46l6.93,14.94
		l7.01-14.94H240.2z"/>
	<path d="M254.86,55.6h17.93v2.49h-14.63v8.89h13.81v2.48h-13.81v11.78h-3.3V55.6z"/>
	<path d="M294.14,63.12v18.11h-3.22V78.1c-0.65,1.1-1.56,1.94-2.73,2.52s-2.49,0.86-3.95,0.86c-2.42,0-4.25-0.6-5.5-1.8
		c-1.25-1.2-1.87-2.98-1.87-5.33V63.12h3.3v11.16c0,1.63,0.38,2.83,1.14,3.6c0.76,0.77,1.91,1.15,3.46,1.15
		c1.82,0,3.29-0.52,4.4-1.57s1.67-2.42,1.67-4.12V63.12H294.14z"/>
	<path d="M318.1,69.86v11.38h-3.3V70c0-1.68-0.38-2.91-1.14-3.69c-0.76-0.78-1.96-1.17-3.59-1.17c-1.9,0-3.42,0.52-4.56,1.55
		c-1.14,1.03-1.71,2.43-1.71,4.18v10.37h-3.3V68.2c0-1.87-0.11-3.56-0.33-5.08h3.14l0.33,3.24c0.62-1.18,1.56-2.08,2.81-2.72
		c1.25-0.64,2.68-0.95,4.28-0.95C315.64,62.69,318.1,65.08,318.1,69.86z"/>
	<path d="M342.38,54.73v26.5h-3.26v-3.28c-0.6,1.13-1.5,2-2.71,2.61c-1.21,0.61-2.61,0.92-4.22,0.92c-1.79,0-3.38-0.4-4.75-1.19
		c-1.37-0.79-2.44-1.9-3.2-3.33c-0.76-1.43-1.14-3.08-1.14-4.95s0.37-3.51,1.12-4.92s1.81-2.49,3.2-3.26
		c1.38-0.77,2.97-1.15,4.77-1.15c1.6,0,3,0.31,4.2,0.92c1.19,0.61,2.09,1.47,2.69,2.58V54.73H342.38z M337.49,77.26
		c1.09-1.21,1.63-2.93,1.63-5.17c0-2.21-0.54-3.92-1.63-5.13c-1.09-1.21-2.64-1.82-4.65-1.82s-3.58,0.6-4.71,1.8
		c-1.13,1.2-1.69,2.89-1.69,5.08c0,2.23,0.56,3.97,1.69,5.2c1.13,1.24,2.7,1.86,4.71,1.86S336.41,78.47,337.49,77.26z"/>
</g>
</svg>
